<?xml version="1.0" standalone="no"?>
<!DOCTYPE svg PUBLIC "-//W3C//DTD SVG 20010904//EN"
 "http://www.w3.org/TR/2001/REC-SVG-20010904/DTD/svg10.dtd">
<svg version="1.0" xmlns="http://www.w3.org/2000/svg"
 width="512.000000pt" height="512.000000pt" viewBox="0 0 512.000000 512.000000"
 preserveAspectRatio="xMidYMid meet">

<g transform="translate(0.000000,512.000000) scale(0.100000,-0.100000)"
fill="#000000" stroke="none">
<path d="M2330 5110 c-424 -41 -844 -190 -1188 -421 -281 -189 -532 -441 -718
-721 -85 -128 -216 -386 -268 -529 -404 -1107 4 -2351 988 -3009 606 -405
1360 -529 2077 -342 411 108 803 330 1118 637 675 656 935 1610 686 2518 -188
687 -676 1282 -1315 1602 -260 130 -507 207 -805 251 -125 18 -449 26 -575 14z
m466 -121 c559 -55 1091 -306 1489 -704 457 -458 715 -1080 715 -1725 0 -645
-258 -1267 -715 -1725 -457 -456 -1081 -715 -1724 -715 -934 0 -1787 534
-2197 1376 -259 532 -314 1153 -152 1728 247 885 994 1566 1898 1735 218 40
471 51 686 30z"/>
<path d="M1593 3766 c-104 -34 -176 -98 -222 -196 -37 -79 -36 -192 1 -272 35
-76 95 -138 165 -173 50 -25 70 -29 143 -30 77 0 92 3 152 33 253 124 256 488
5 612 -76 37 -178 48 -244 26z m175 -122 c84 -35 136 -115 136 -209 0 -128
-96 -225 -221 -225 -192 1 -293 230 -165 372 66 73 165 98 250 62z"/>
<path d="M3007 3035 c-74 -19 -156 -58 -212 -101 l-45 -34 0 55 0 55 -287 -2
-288 -3 -3 -832 -2 -833 290 0 290 0 0 468 c0 501 3 536 51 606 31 46 87 76
153 83 91 9 158 -24 199 -100 22 -42 22 -47 25 -549 l3 -508 300 0 300 0 -3
593 c-4 573 -5 595 -26 670 -61 219 -190 359 -390 424 -68 21 -282 26 -355 8z
m308 -120 c174 -46 292 -182 330 -379 12 -62 15 -177 15 -577 l0 -499 -179 0
-180 0 -3 448 c-3 441 -4 448 -26 505 -35 85 -79 137 -146 172 -51 26 -70 30
-140 30 -141 0 -239 -54 -299 -164 -51 -94 -57 -148 -57 -588 l0 -403 -170 0
-170 0 0 715 0 715 170 0 170 0 2 -187 3 -188 63 115 c93 168 167 235 311 281
72 23 225 25 306 4z"/>
<path d="M1390 2175 l0 -835 295 0 295 0 0 835 0 835 -295 0 -295 0 0 -835z
m478 -2 l2 -713 -180 0 -180 0 0 715 0 715 178 -2 177 -3 3 -712z"/>
</g>
</svg>
