<?xml version="1.0" standalone="no"?>
<!DOCTYPE svg PUBLIC "-//W3C//DTD SVG 20010904//EN"
 "http://www.w3.org/TR/2001/REC-SVG-20010904/DTD/svg10.dtd">
<svg version="1.0" xmlns="http://www.w3.org/2000/svg"
 width="512.000000pt" height="512.000000pt" viewBox="0 0 512.000000 512.000000"
 preserveAspectRatio="xMidYMid meet">

<g transform="translate(0.000000,512.000000) scale(0.100000,-0.100000)"
fill="#000000" stroke="none">
<path d="M1300 3990 c-843 -389 -1072 -498 -1097 -525 -56 -59 -56 -151 0
-210 24 -25 114 -71 354 -181 l322 -148 3 -626 3 -625 33 -68 c94 -191 359
-336 762 -417 602 -121 1348 -78 1801 104 205 82 338 186 400 312 l34 69 3
625 3 626 102 46 c56 26 146 67 200 92 l97 45 0 -767 0 -767 -64 -33 c-115
-60 -207 -177 -241 -309 -83 -320 200 -634 529 -586 322 46 505 384 367 679
-40 85 -124 173 -207 216 l-64 33 0 913 c0 984 2 939 -52 989 -12 11 -498 240
-1078 508 -764 353 -1067 489 -1100 492 -42 4 -115 -28 -1110 -487z m1955
-240 c459 -212 835 -387 835 -390 0 -9 -1670 -775 -1689 -775 -19 0 -1690 766
-1690 775 0 10 1674 779 1691 777 10 -1 393 -175 853 -387z m-845 -1507 c32 3
206 79 600 262 305 141 563 259 573 262 16 5 17 -24 17 -510 l0 -516 -36 -35
c-156 -151 -664 -267 -1173 -266 -504 1 -1008 119 -1160 271 l-31 31 0 518 0
518 583 -270 c539 -249 585 -269 627 -265z m2133 -977 c103 -43 128 -177 48
-257 -65 -65 -157 -65 -222 0 -124 123 13 325 174 257z"/>
</g>
</svg>
